<svg width="617" height="143" viewBox="0 0 617 143" fill="none" xmlns="http://www.w3.org/2000/svg">
<path fill-rule="evenodd" clip-rule="evenodd" d="M0 0L271 2.16961e-05V24H231V106L206 124V24H139V142H114V41L139 23V5L114 23V24H25V66H78V91H25V142H0V24.5V0ZM231 124L206 142H231V124Z" fill="white"/>
<path d="M276 0H322.731C330.688 0 337.634 2.5026 343.568 5.19992C349.637 7.76237 354.627 11.2015 358.538 15.5172C362.584 19.8329 365.618 24.7555 367.641 30.285C369.664 35.6796 370.676 41.2766 370.676 47.0758C370.676 52.7402 369.664 58.3371 367.641 63.8666C365.618 69.3961 362.584 74.3187 358.538 78.6344C354.627 82.8152 349.637 86.2543 343.568 88.9517C337.634 91.5141 330.683 93 322.725 93H300V142H276V43.4344L299.871 24.0137H276V0ZM300 24.0137V69.9356H322.731C327.856 69.9356 332.104 68.7892 335.476 66.4965C338.982 64.2038 341.545 61.3716 343.163 57.9999C344.916 54.6283 345.793 50.9869 345.793 47.0758C345.793 43.0298 344.916 39.321 343.163 35.9494C341.41 32.5777 338.848 29.7455 335.476 27.4528C332.104 25.1601 327.856 24.0137 322.731 24.0137H300Z" fill="white"/>
<path d="M425.748 0C435.062 0 443.026 1.61982 449.64 4.85946C456.254 8.09911 461.451 12.3511 465.231 17.6156C469.145 22.745 471.71 28.4819 472.925 34.8262C474.14 41.0355 473.937 47.1773 472.317 53.2516C470.833 59.191 467.93 64.7254 463.611 69.8548C459.426 74.9842 453.824 78.8988 446.805 81.5985L487.954 142.129H459L420.69 85.1289H405V142.129H381V42.3178L404.892 24.1289H381V0H425.748ZM405 24.1289V62.1289H425.5C430.629 62.1289 435.129 61.4182 438.504 59.5284C442.013 57.5037 444.578 55.0739 446.198 52.2392C447.953 49.2696 448.83 46.0974 448.83 42.7228C448.83 39.2132 447.953 36.041 446.198 33.2063C444.443 30.2367 441.878 27.8069 438.504 25.9171C435.129 23.8924 430.877 24.1289 425.748 24.1289H405Z" fill="white"/>
<path d="M547.092 0C555.894 0 564.437 1.48856 572.721 4.46568C581.134 7.4428 588.577 11.9085 595.049 17.8627C601.651 23.6875 606.958 31.0656 610.97 39.997C614.983 48.7989 616.989 59.1541 616.989 71.0626C616.989 82.8416 614.983 93.1968 610.97 102.128C606.958 111.06 601.651 118.502 595.049 124.457C588.577 130.281 581.134 134.682 572.721 137.659C564.437 140.637 555.894 142.125 547.092 142.125C538.29 142.125 529.682 140.637 521.268 137.659C512.855 134.682 505.347 130.281 498.746 124.457C492.274 118.502 487.032 111.06 483.019 102.128C479.006 93.1968 477 82.8416 477 71.0626C477 60.9662 478.489 51.8407 481.466 43.686H507.483C505.024 47.3103 503.082 51.3877 501.658 55.9181C500.364 60.4485 499.717 65.4966 499.717 71.0626C499.717 78.9584 501.076 85.8834 503.794 91.8377C506.512 97.7919 510.072 102.775 514.473 106.788C519.003 110.801 524.051 113.778 529.617 115.719C535.313 117.661 541.138 118.632 547.092 118.632C552.917 118.632 558.677 117.661 564.372 115.719C570.067 113.778 575.116 110.801 579.516 106.788C583.917 102.775 587.477 97.7919 590.195 91.8377C592.914 85.8834 594.273 78.9584 594.273 71.0626C594.273 63.0373 592.914 56.1122 590.195 50.2874C587.477 44.3332 583.917 39.3498 579.516 35.3371C575.116 31.3245 570.067 28.3474 564.372 26.4058C558.677 24.4642 552.917 23.4934 547.092 23.4934C539.843 23.4934 532.853 24.9819 526.122 27.959C519.392 30.8067 513.761 35.143 509.231 40.9678L493.115 23.8817C499.846 15.8564 507.936 9.90216 517.385 6.01895C526.964 2.00632 536.866 0 547.092 0Z" fill="white"/>
</svg>
